# xmcd CD database file
#
# Track frame offsets:
#	150
#	16680
#	33687
#	51070
#	70770
#	89897
#	110735
#	132092
#	149330
#	169220
#	192247
#	212480
#
# Disc length: 3119 seconds
#
# Revision: 1
# Processed by: cddbd v1.5.1PL0 Copyright (c) Steve Scherf et al.
# Submitted via: CDex 1.51
#
DISCID=ae0c2d0c
DTITLE=Erasmo Carlos - Pra Falar de Amor
DYEAR=2001
DGENRE=Blues
TTITLE0=Seu Bicho de Estimação
TTITLE1=Mais Um Na Multidão
TTITLE2=O Impossível
TTITLE3=Outernet
TTITLE4=Qualquer Jeito
TTITLE5=Feche a Porta
TTITLE6=Vivendo de Sonhos
TTITLE7=Pra Falar de Amor
TTITLE8=Quem Vai Ficar No Gol
TTITLE9=Ela Conversa Com o Olhar
TTITLE10=Desenho Animado
TTITLE11=A Família
EXTD=YEAR: 2001
EXTT0=
EXTT1=
EXTT2=
EXTT3=
EXTT4=
EXTT5=
EXTT6=
EXTT7=
EXTT8=
EXTT9=
EXTT10=
EXTT11=
PLAYORDER=
